HIERARCHY
ROOT Hips
{
  OFFSET 263.056 91.6644 -274.608
  CHANNELS 6 Xposition Yposition Zposition Zrotation Xrotation Yrotation
  JOINT LeftUpLeg
  {
    OFFSET 8.64259 1.95398 -2.38835
    CHANNELS 3 Zrotation Xrotation Yrotation
    JOINT LeftLeg
    {
      OFFSET 43.7702 0 0
      CHANNELS 3 Zrotation Xrotation Yrotation
      JOINT LeftFoot
      {
        OFFSET 40.6238 0 0
        CHANNELS 3 Zrotation Xrotation Yrotation
        JOINT LeftToeBase
        {
          OFFSET 12.7242 0 0
          CHANNELS 3 Zrotation Xrotation Yrotation
          End Site
          {
            OFFSET 0 0 0
          }
        }
      }
    }
  }
  JOINT RightUpLeg
  {
    OFFSET -8.2249 1.95398 -2.59336
    CHANNELS 3 Zrotation Xrotation Yrotation
    JOINT RightLeg
    {
      OFFSET 43.5653 0 0
      CHANNELS 3 Zrotation Xrotation Yrotation
      JOINT RightFoot
      {
        OFFSET 40.6238 0 0
        CHANNELS 3 Zrotation Xrotation Yrotation
        JOINT RightToeBase
        {
          OFFSET 12.7242 0 0
          CHANNELS 3 Zrotation Xrotation Yrotation
          End Site
          {
            OFFSET 0 0 0
          }
        }
      }
    }
  }
  JOINT Spine
  {
    OFFSET 0.165834 0.87714 6.61349
    CHANNELS 3 Zrotation Xrotation Yrotation
    JOINT Spine1
    {
      OFFSET 7.38963 1.71661e-005 0
      CHANNELS 3 Zrotation Xrotation Yrotation
      JOINT Spine2
      {
        OFFSET 11.9445 1.14441e-005 0
        CHANNELS 3 Zrotation Xrotation Yrotation
        JOINT Spine3
        {
          OFFSET 14.7254 4.19617e-005 0
          CHANNELS 3 Zrotation Xrotation Yrotation
          JOINT Spine4
          {
            OFFSET 10.9679 0 0
            CHANNELS 3 Zrotation Xrotation Yrotation
            JOINT RightShoulder
            {
              OFFSET 2.46616 -1.6653 3.69651
              CHANNELS 3 Zrotation Xrotation Yrotation
              JOINT RightArm
              {
                OFFSET 13.0012 0 0
                CHANNELS 3 Zrotation Xrotation Yrotation
                JOINT RightForeArm
                {
                  OFFSET 28.7848 1.52588e-005 0
                  CHANNELS 3 Zrotation Xrotation Yrotation
                  JOINT RightHand
                  {
                    OFFSET 26.5688 1.52588e-005 0
                    CHANNELS 3 Zrotation Xrotation Yrotation
                    End Site
                    {
                      OFFSET 0 0 0
                    }
                  }
                }
              }
            }
            JOINT LeftShoulder
            {
              OFFSET 2.38034 -1.29275 -3.7523
              CHANNELS 3 Zrotation Xrotation Yrotation
              JOINT LeftArm
              {
                OFFSET 16.3182 6.10352e-005 0
                CHANNELS 3 Zrotation Xrotation Yrotation
                JOINT LeftForeArm
                {
                  OFFSET 27.0901 0 0
                  CHANNELS 3 Zrotation Xrotation Yrotation
                  JOINT LeftHand
                  {
                    OFFSET 24.5451 1.52588e-005 0
                    CHANNELS 3 Zrotation Xrotation Yrotation
                    End Site
                    {
                      OFFSET 0 0 0
                    }
                  }
                }
              }
            }
            JOINT Neck
            {
              OFFSET 5.0226 -0.0266342 0
              CHANNELS 3 Zrotation Xrotation Yrotation
              JOINT Head
              {
                OFFSET 6.69364 2.86102e-005 0
                CHANNELS 3 Zrotation Xrotation Yrotation
                End Site
                {
                  OFFSET 0 0 0
                }
              }
            }
          }
        }
      }
    }
  }
}
MOTION
Frames:	9
Frame Time:	0.0416667
17.1462 82.8505 -17.7735 -81.9748 -52.925 -86.8541 -171.146 22.4632 107.189 -46.1656 20.2703 1.56682 55.2811 7.04498 21.4821 61.2145 35.808 1.37822 168.129 58.395 90.7539 -70.2598 8.90908 1.94023 62.0825 -2.2662 -1.21793 51.6082 1.29905 -0.820066 -0.72455 9.16849 -88.6986 8.53969 -0.870161 2.62865 -3.13368 -0.753656 2.66435 -25.6546 -1.61977 2.24591 -5.64197 -1.61976 2.24592 77.5402 -51.8276 -118.726 27.3315 -15.9702 36.7317 -13.3025 -21.2298 -46.2982 13.3413 0.508196 3.86547 -102.78 -36.713 53.8551 -6.87977 -10.294 -9.54393 20.229 -4.50471 -92.5001 22.5003 2.59283 7.75697 3.69592 -20.5026 -6.01048 10.3764 -20.385 -11.5539 
11.4505 84.4124 -14.5146 -80.3586 -49.3871 -88.0719 -168.6 13.3036 106.331 -35.3177 19.8521 1.2293 53.8221 2.87221 13.8133 58.2501 34.5732 5.63492 167.365 59.3899 88.1226 -66.681 8.36141 3.2878 57.646 -0.618688 -0.214434 48.1261 1.36686 1.8242 -0.90086 8.74948 -88.8519 9.38306 -1.2803 2.37123 -2.28953 -1.17474 2.42524 -24.8178 -1.93366 1.87706 -4.80518 -1.93365 1.87706 78.1079 -50.6713 -118.392 31.4121 -15.9375 44.568 -14.0054 -19.331 -47.9448 20.0479 0.43781 1.45909 -101.714 -37.4539 55.9658 -10.8919 -7.55362 -5.1277 21.6453 -5.29622 -103.27 20.6907 2.24876 7.05063 2.98967 -18.3354 -3.22564 11.4546 -18.6349 -9.68256 
4.53507 86.3513 -11.3966 -79.1625 -45.7701 -90.7244 -166.676 1.20916 105.422 -18.0116 17.8171 0.843908 43.2901 -7.25886 0.7601 56.3627 34.4651 10.1316 167.569 58.9153 85.2323 -63.9301 8.98248 4.51272 56.8133 -0.125435 0.133449 49.5877 1.9564 5.59933 -1.00611 8.35346 -88.8568 10.1775 -1.48324 2.39548 -1.4949 -1.37638 2.45839 -24.0253 -2.1345 1.83918 -4.01267 -2.13449 1.83918 77.6749 -50.4414 -119.12 34.6166 -14.599 49.6156 -11.9064 -17.8312 -47.4047 22.7169 0.0961959 -0.919432 -100.902 -38.1096 57.6054 -13.905 -2.33829 0.773348 22.9791 -8.29863 -106.627 19.9625 2.22269 7.30831 0.897665 -16.515 -0.756012 12.3474 -17.1756 -8.10526 
-3.06284 88.0452 -8.95658 -77.769 -43.6646 -94.3634 -168.157 -6.24238 102.813 -7.76552 12.4896 1.02344 29.5724 -15.2438 -10.818 45.2306 22.0259 16.5275 168.251 57.737 81.7233 -63.2654 11.1603 5.23518 59.0002 -0.603504 -0.197916 54.5823 2.16014 3.37068 -1.21255 8.10246 -88.7954 10.6852 -1.8599 2.56609 -0.98708 -1.7452 2.64541 -23.5206 -2.545 1.88867 -3.50801 -2.54501 1.88867 77.5237 -50.9106 -119.138 34.4743 -11.3856 50.0925 -11.2039 -16.276 -45.5101 22.687 0.192823 -0.712002 -99.8784 -38.3582 59.3836 -18.2236 2.32056 5.62897 21.9999 -8.56981 -105.129 18.2676 1.86255 6.30953 1.05992 -15.0407 1.23517 13.016 -15.7318 -5.66169 
-10.8842 89.0459 -6.67236 -74.6226 -40.1539 -94.3806 -171.135 -8.08046 100.454 -7.68177 16.4938 1.49971 29.1457 -15.6432 -6.07255 28.5872 -1.36131 9.3208 167.699 55.5173 83.066 -62.9127 14.6079 5.75946 63.1817 -2.0451 -1.12264 48.5961 1.53783 3.02758 -1.13736 7.8953 -89.0815 11.097 -1.83767 2.00619 -0.574287 -1.74761 2.08509 -23.1133 -2.35559 1.36114 -3.10063 -2.35558 1.36114 78.565 -51.1657 -117.519 32.9242 -9.42574 46.8529 -11.5648 -15.5273 -44.8929 18.1435 0.0972292 -0.945787 -100.352 -38.6951 58.7749 -22.724 3.55504 10.3654 20.9492 -6.37371 -100.613 15.5757 1.56363 6.07457 3.35214 -13.6377 4.27416 13.6871 -14.6652 -4.20124 
-18.1196 88.7477 -4.66475 -73.0715 -35.0144 -95.264 -173.304 -6.31521 96.7211 -17.2966 16.7909 1.72944 35.2544 -11.8595 -1.06871 31.2761 2.37105 6.30786 168.792 51.726 84.9858 -63.183 16.3238 5.48523 67.5726 -3.12955 -1.6955 48.5876 2.34163 9.56965 -0.929049 7.89185 -89.3749 11.0986 -1.55917 1.39464 -0.572188 -1.49627 1.4619 -23.1121 -1.9062 0.86152 -3.09945 -1.90621 0.861512 78.5562 -52.9676 -116.807 28.5967 -10.5565 41.6129 -11.2697 -15.1979 -45.1961 10.0713 -0.159379 -1.79805 -101.063 -39.8928 58.1953 -27.1566 4.23229 13.6658 21.7795 -4.69968 -90.3376 19.6153 1.8471 5.65872 6.228 -12.0405 7.33813 13.9714 -13.504 -2.43462 
-25.2107 87.5888 -2.93648 -71.3025 -28.3524 -94.3308 -174.093 1.63993 95.0592 -36.7555 17.7939 1.64814 40.8976 -10.6882 0.13208 33.6549 5.32596 7.15538 171.344 47.1903 89.1862 -62.8537 16.5092 4.0306 78.0901 -6.13418 -2.79759 43.5976 1.73794 12.1741 -0.53427 7.93582 -89.7435 11.0048 -0.944833 0.600678 -0.665971 -0.917452 0.641679 -23.2035 -1.08165 0.28893 -3.19089 -1.08164 0.288939 77.5892 -55.0202 -117.351 23.0342 -11.605 34.4286 -11.1559 -14.7521 -46.2513 0.855719 -0.25606 -1.66351 -101.402 -41.5433 58.4266 -30.0816 4.63041 16.5075 18.4607 0.0167722 -82.7273 21.7849 3.90883 14.1627 8.58144 -10.2359 9.42945 14.3822 -12.1562 -1.41408 
-31.7885 86.7933 -1.79821 -71.1381 -22.5926 -94.0178 -174.051 11.4556 94.1459 -55.9219 18.3503 0.511385 41.477 -11.2754 0.598531 36.1661 8.34222 3.08118 173.495 42.643 92.3398 -62.515 16.3182 2.19007 78.1289 -6.09507 -2.77476 51.898 3.0196 11.3711 -0.175383 8.29352 -89.9831 10.2867 -0.341596 0.0634697 -1.38421 -0.338469 0.078436 -23.9197 -0.344872 -0.0421301 -3.90704 -0.344884 -0.0421386 77.0108 -55.614 -117.914 19.0663 -11.4857 24.7896 -11.8777 -14.634 -48.764 -10.6306 -0.579699 0.527657 -102.173 -42.4747 57.6589 -33.3974 6.58878 18.7791 9.88426 1.85182 -67.7375 30.8697 2.78056 5.09269 12.7249 -8.73743 9.58281 14.7435 -10.8081 -0.056532 
-38.1788 86.1133 -0.750851 -71.2491 -16.8262 -93.2863 -172.482 24.0804 94.4454 -73.9157 17.4185 -0.503241 43.2551 -10.2059 3.28244 34.0383 5.87269 1.21579 175.027 35.9537 95.2077 -59.3619 15.4808 1.12821 81.3924 -7.83409 -3.25532 54.1372 3.19223 10.0485 0.213615 8.64063 -90.076 9.59254 0.391741 -0.179782 -2.07837 0.383438 -0.196862 -24.614 0.42764 -0.0537445 -4.60133 0.42765 -0.0537432 76.0729 -54.478 -119.688 18.1505 -10.1655 16.1186 -14.9026 -11.4747 -57.3462 -19.9932 -0.99163 1.1374 -102.241 -42.6344 57.6272 -37.2862 7.79594 22.0574 0.846724 -1.46232 -54.7598 30.9848 2.18367 3.19724 16.741 -7.26584 8.78526 13.6939 -9.41412 0.219228 
